<?xml version="1.0" encoding="UTF-8"?><svg id="a" xmlns="http://www.w3.org/2000/svg" viewBox="0 0 1048.82 204.04"><defs><style>.b{fill:#fff;}</style></defs><polygon class="b" points="398.79 117.46 405.77 96.24 366.21 96.24 370.18 83.91 417.12 83.91 424.36 61.8 347.56 61.8 317.27 154.25 396 154.25 403.34 131.73 354.57 131.73 359.21 117.46 398.79 117.46"/><polygon class="b" points="336.58 61.8 246.56 61.8 238.59 86.09 269.13 86.09 246.77 154.25 276.66 154.25 298.97 86.09 328.59 86.09 336.58 61.8"/><polygon class="b" points="470.89 61.8 441.05 61.8 410.75 154.25 483.92 154.25 491.95 129.69 448.64 129.69 470.89 61.8"/><polygon class="b" points="827.65 61.8 797.34 154.25 827.87 154.25 858.18 61.8 827.65 61.8"/><path class="b" d="M1048.82,154.25l-5.26-92.45h-30.26l-64.88,91.29-21.53-57.22,47.6-34.06h-35.93l-41.78,30.59,10.01-30.59h-29.52l-30.28,92.45h29.46l9.67-29.45,12.43-7.59,13.58,37.04h64.67l7.93-12.22h34.64l-.17,12.22h29.61Zm-51.68-31.66l21.85-32,.93,32h-22.77Z"/><polygon class="b" points="780.16 61.8 762.93 117.99 747.49 61.8 719.15 61.8 688.87 154.25 717.18 154.25 734.27 98.32 749.88 154.25 778.19 154.25 808.5 61.8 780.16 61.8"/><polygon class="b" points="600.58 61.8 510.6 61.8 502.59 86.09 533.13 86.09 510.79 154.25 540.68 154.25 562.99 86.09 592.59 86.09 600.58 61.8"/><path class="b" d="M691.51,102.81c.28-1.21,.65-3.18,1.07-5.93,1.8-11.73-.42-20.93-6.72-27.55-6.24-6.64-15.89-9.97-28.9-9.97-14.9,0-28.23,4.46-39.9,13.29-11.72,8.9-20.02,20.7-24.94,35.44-1.35,4.1-2.25,7.72-2.7,10.81-1.8,11.74,.42,20.98,6.69,27.67,6.24,6.75,15.89,10.11,28.88,10.11,15.18,0,28.51-4.34,40.01-13.03,11.5-8.7,19.82-20.55,24.83-35.55,.81-2.29,1.35-4.05,1.69-5.27Zm-29.38-3.74c-.36,2.42-1.12,5.42-2.31,9.01-2.56,7.72-5.74,13.64-9.56,17.77-4.75,5.13-10.6,7.68-17.57,7.68-5.59,0-9.42-1.63-11.42-4.86-1.69-2.67-2.11-6.52-1.32-11.58,.2-1.45,.54-2.95,.93-4.5,.39-1.55,.84-3.04,1.32-4.5,2.59-7.72,5.74-13.62,9.45-17.73,4.78-5.17,10.66-7.73,17.74-7.73,5.59,0,9.39,1.64,11.39,4.88,1.69,2.67,2.11,6.51,1.35,11.57Z"/><path class="b" d="M196.42,168.88l-66.85-66.87L196.42,35.17l23.99,23.99,29.58-29.58L220.41,0l-29.58,29.6L161.23,0l-29.6,29.6L102.04,0,0,102l102.04,102.04,29.6-29.59,29.58,29.59,29.6-29.59,29.58,29.59,29.58-29.58-29.58-29.58-23.99,23.99Zm-118.37,0L11.21,102,78.05,35.17l24,23.99-42.87,42.84,42.87,42.88-24,23.99Zm59.19,0L70.39,102,137.23,35.17l24,23.99-42.81,42.84,42.81,42.88-24,23.99Z"/></svg>