<svg width="30" height="28" viewBox="0 0 30 28" fill="none" xmlns="http://www.w3.org/2000/svg">
<path d="M14.9999 14.1496C19.6291 14.1496 23.3809 11.1818 23.3809 7.52009C23.3809 3.85835 19.6291 0.890625 14.9999 0.890625C10.3708 0.890625 6.61897 3.85835 6.61897 7.52009C6.61897 11.1818 10.3708 14.1496 14.9999 14.1496ZM20.8666 15.8069H19.7731C18.3196 16.3352 16.7023 16.6356 14.9999 16.6356C13.2975 16.6356 11.6868 16.3352 10.2267 15.8069H9.13325C4.27492 15.8069 0.333252 18.9248 0.333252 22.7679V24.9224C0.333252 26.2949 1.74099 27.4085 3.47611 27.4085H26.5237C28.2588 27.4085 29.6666 26.2949 29.6666 24.9224V22.7679C29.6666 18.9248 25.7249 15.8069 20.8666 15.8069Z" fill="white"/>
</svg>
