<svg width="14" height="8" viewBox="0 0 14 8" fill="none" xmlns="http://www.w3.org/2000/svg">
<path d="M0.659008 1.02577C0.659008 0.943395 0.700196 0.840424 0.761978 0.778642C0.906136 0.634484 1.13267 0.634484 1.27683 0.758049L6.79603 5.94775C6.899 6.05072 7.08434 6.05072 7.20791 5.94775L12.7271 0.758049C12.8713 0.613891 13.0978 0.634485 13.242 0.778643C13.3861 0.922801 13.3655 1.14934 13.2214 1.29349L7.70216 6.48319C7.31088 6.83329 6.69306 6.83329 6.32236 6.48319L0.782572 1.29349C0.700196 1.21112 0.659008 1.12874 0.659008 1.02577Z" fill="#637381"/>
<path fill-rule="evenodd" clip-rule="evenodd" d="M1.71722 0.267553L7.00197 5.2368L12.2699 0.28336C12.7184 -0.155305 13.3588 -0.0364916 13.7079 0.312646C14.1569 0.761551 14.0388 1.40805 13.6874 1.75948L13.673 1.77381L8.14172 6.97446C7.5076 7.54183 6.50229 7.5585 5.87093 6.96329C5.87058 6.96295 5.87128 6.96362 5.87093 6.96329L0.316334 1.75972C0.143866 1.58726 -5.8826e-08 1.34578 -4.48376e-08 1.02576C-3.36841e-08 0.770603 0.109215 0.49942 0.295989 0.312646C0.692581 -0.0839473 1.3098 -0.0816624 1.70571 0.257685L1.71722 0.267553ZM6.32236 6.48319C6.69306 6.83329 7.31088 6.83329 7.70216 6.48319L13.2214 1.29349C13.3655 1.14934 13.3861 0.922801 13.242 0.778643C13.0978 0.634485 12.8713 0.613891 12.7271 0.758049L7.20791 5.94775C7.08434 6.05072 6.899 6.05072 6.79603 5.94775L1.27683 0.758049C1.13267 0.634484 0.906136 0.634484 0.761978 0.778642C0.700196 0.840424 0.659008 0.943395 0.659008 1.02577C0.659008 1.12874 0.700196 1.21112 0.782572 1.29349L6.32236 6.48319Z" fill="#637381"/>
</svg>
